<svg width="479" height="481" xmlns="http://www.w3.org/2000/svg" xmlns:xlink="http://www.w3.org/1999/xlink" overflow="hidden"><defs><clipPath id="clip0"><rect x="384" y="119" width="479" height="481"/></clipPath></defs><g clip-path="url(#clip0)" transform="translate(-384 -119)"><path d="M403 360C403 236.84 502.841 137 626 137 749.159 137 849 236.84 849 360 849 483.159 749.159 583 626 583 502.841 583 403 483.159 403 360Z" stroke="#004556" stroke-width="4" stroke-miterlimit="8" fill="none" fill-rule="evenodd"/><path d="M639.5 157.5 639.5 148.5 594.5 148.5 594.5 130.5 639.5 130.5 639.5 121.5 657.5 139.5Z" stroke="#004556" stroke-width="1.33333" stroke-miterlimit="8" fill="#004556" fill-rule="evenodd"/><path d="M464.259 236.263 456.509 231.921 434.412 271.366 418.912 262.683 441.009 223.238 433.258 218.896 457.442 212.079Z" stroke="#004556" stroke-width="1.33333" stroke-miterlimit="8" fill="#004556" fill-rule="evenodd"/><path d="M421.608 368.474 412.86 370.019 420.726 414.542 403.23 417.634 395.364 373.111 386.616 374.656 401.021 354.069Z" stroke="#004556" stroke-width="1.33333" stroke-miterlimit="8" fill="#004556" fill-rule="evenodd"/><path d="M801.869 259.335 809.255 254.399 784.133 216.808 798.905 206.936 824.026 244.527 831.412 239.591 826.513 264.235Z" stroke="#004556" stroke-width="1.33333" stroke-miterlimit="8" fill="#004556" fill-rule="evenodd"/><path d="M825.07 402.031 833.847 403.399 840.812 358.726 858.367 361.463 851.402 406.136 860.18 407.504 839.888 422.322Z" stroke="#004556" stroke-width="1.33333" stroke-miterlimit="8" fill="#004556" fill-rule="evenodd"/><path d="M762.421 513.064 768.748 519.299 800.482 487.093 813.137 499.564 781.404 531.769 787.732 538.004 762.606 538.189Z" stroke="#004556" stroke-width="1.33333" stroke-miterlimit="8" fill="#004556" fill-rule="evenodd"/><path d="M601 563.5 601 572.25 646.5 572.25 646.5 589.75 601 589.75 601 598.5 583.5 581Z" stroke="#004556" stroke-width="1.33333" stroke-miterlimit="8" fill="#004556" fill-rule="evenodd"/><path d="M466.133 488.378 459.634 494.434 490.457 527.511 477.459 539.624 446.636 506.547 440.137 512.603 441.022 487.492Z" stroke="#004556" stroke-width="1.33333" stroke-miterlimit="8" fill="#004556" fill-rule="evenodd"/></g></svg>