<svg width="1005" height="459" xmlns="http://www.w3.org/2000/svg" xmlns:xlink="http://www.w3.org/1999/xlink" overflow="hidden"><defs><clipPath id="clip0"><path d="M-1-2 1004-2 1004 457-1 457Z" fill-rule="evenodd" clip-rule="evenodd"/></clipPath><clipPath id="clip1"><path d="M-1-114 126-114 126 246-1 246Z" fill-rule="evenodd" clip-rule="evenodd"/></clipPath><clipPath id="clip2"><path d="M-1-114 126-114 126 246-1 246Z" fill-rule="evenodd" clip-rule="evenodd"/></clipPath><clipPath id="clip3"><path d="M125-37 251-37 251 143 125 143Z" fill-rule="evenodd" clip-rule="evenodd"/></clipPath><clipPath id="clip4"><path d="M250-114 376-114 376 246 250 246Z" fill-rule="evenodd" clip-rule="evenodd"/></clipPath><clipPath id="clip5"><path d="M250-114 376-114 376 246 250 246Z" fill-rule="evenodd" clip-rule="evenodd"/></clipPath><clipPath id="clip6"><path d="M375-114 502-114 502 246 375 246Z" fill-rule="evenodd" clip-rule="evenodd"/></clipPath><clipPath id="clip7"><path d="M375-114 502-114 502 246 375 246Z" fill-rule="evenodd" clip-rule="evenodd"/></clipPath><clipPath id="clip8"><path d="M501-114 627-114 627 246 501 246Z" fill-rule="evenodd" clip-rule="evenodd"/></clipPath><clipPath id="clip9"><path d="M501-114 627-114 627 246 501 246Z" fill-rule="evenodd" clip-rule="evenodd"/></clipPath><clipPath id="clip10"><path d="M626-114 752-114 752 246 626 246Z" fill-rule="evenodd" clip-rule="evenodd"/></clipPath><clipPath id="clip11"><path d="M626-114 752-114 752 246 626 246Z" fill-rule="evenodd" clip-rule="evenodd"/></clipPath><clipPath id="clip12"><path d="M751-37 877-37 877 143 751 143Z" fill-rule="evenodd" clip-rule="evenodd"/></clipPath><clipPath id="clip13"><path d="M876-37 1003-37 1003 143 876 143Z" fill-rule="evenodd" clip-rule="evenodd"/></clipPath><clipPath id="clip14"><path d="M-1 24 126 24 126 204-1 204Z" fill-rule="evenodd" clip-rule="evenodd"/></clipPath><clipPath id="clip15"><path d="M125 24 251 24 251 204 125 204Z" fill-rule="evenodd" clip-rule="evenodd"/></clipPath><clipPath id="clip16"><path d="M250 24 376 24 376 204 250 204Z" fill-rule="evenodd" clip-rule="evenodd"/></clipPath><clipPath id="clip17"><path d="M375 24 502 24 502 204 375 204Z" fill-rule="evenodd" clip-rule="evenodd"/></clipPath><clipPath id="clip18"><path d="M501 24 627 24 627 204 501 204Z" fill-rule="evenodd" clip-rule="evenodd"/></clipPath><clipPath id="clip19"><path d="M626 24 752 24 752 204 626 204Z" fill-rule="evenodd" clip-rule="evenodd"/></clipPath><clipPath id="clip20"><path d="M751 24 877 24 877 204 751 204Z" fill-rule="evenodd" clip-rule="evenodd"/></clipPath><clipPath id="clip21"><path d="M876 24 1003 24 1003 204 876 204Z" fill-rule="evenodd" clip-rule="evenodd"/></clipPath><clipPath id="clip22"><path d="M-1 75 126 75 126 255-1 255Z" fill-rule="evenodd" clip-rule="evenodd"/></clipPath><clipPath id="clip23"><path d="M125 75 251 75 251 255 125 255Z" fill-rule="evenodd" clip-rule="evenodd"/></clipPath><clipPath id="clip24"><path d="M250 75 376 75 376 255 250 255Z" fill-rule="evenodd" clip-rule="evenodd"/></clipPath><clipPath id="clip25"><path d="M375 75 502 75 502 255 375 255Z" fill-rule="evenodd" clip-rule="evenodd"/></clipPath><clipPath id="clip26"><path d="M501 75 627 75 627 255 501 255Z" fill-rule="evenodd" clip-rule="evenodd"/></clipPath><clipPath id="clip27"><path d="M626 75 752 75 752 255 626 255Z" fill-rule="evenodd" clip-rule="evenodd"/></clipPath><clipPath id="clip28"><path d="M751 75 877 75 877 255 751 255Z" fill-rule="evenodd" clip-rule="evenodd"/></clipPath><clipPath id="clip29"><path d="M876 75 1003 75 1003 255 876 255Z" fill-rule="evenodd" clip-rule="evenodd"/></clipPath><clipPath id="clip30"><path d="M-1 126 126 126 126 307-1 307Z" fill-rule="evenodd" clip-rule="evenodd"/></clipPath><clipPath id="clip31"><path d="M125 126 251 126 251 307 125 307Z" fill-rule="evenodd" clip-rule="evenodd"/></clipPath><clipPath id="clip32"><path d="M250 126 376 126 376 307 250 307Z" fill-rule="evenodd" clip-rule="evenodd"/></clipPath><clipPath id="clip33"><path d="M375 126 502 126 502 307 375 307Z" fill-rule="evenodd" clip-rule="evenodd"/></clipPath><clipPath id="clip34"><path d="M501 126 627 126 627 307 501 307Z" fill-rule="evenodd" clip-rule="evenodd"/></clipPath><clipPath id="clip35"><path d="M626 126 752 126 752 307 626 307Z" fill-rule="evenodd" clip-rule="evenodd"/></clipPath><clipPath id="clip36"><path d="M751 126 877 126 877 307 751 307Z" fill-rule="evenodd" clip-rule="evenodd"/></clipPath><clipPath id="clip37"><path d="M876 126 1003 126 1003 307 876 307Z" fill-rule="evenodd" clip-rule="evenodd"/></clipPath><clipPath id="clip38"><path d="M-1 178 126 178 126 358-1 358Z" fill-rule="evenodd" clip-rule="evenodd"/></clipPath><clipPath id="clip39"><path d="M125 178 251 178 251 358 125 358Z" fill-rule="evenodd" clip-rule="evenodd"/></clipPath><clipPath id="clip40"><path d="M250 178 376 178 376 358 250 358Z" fill-rule="evenodd" clip-rule="evenodd"/></clipPath><clipPath id="clip41"><path d="M375 178 502 178 502 358 375 358Z" fill-rule="evenodd" clip-rule="evenodd"/></clipPath><clipPath id="clip42"><path d="M501 178 627 178 627 358 501 358Z" fill-rule="evenodd" clip-rule="evenodd"/></clipPath><clipPath id="clip43"><path d="M626 178 752 178 752 358 626 358Z" fill-rule="evenodd" clip-rule="evenodd"/></clipPath><clipPath id="clip44"><path d="M751 178 877 178 877 358 751 358Z" fill-rule="evenodd" clip-rule="evenodd"/></clipPath><clipPath id="clip45"><path d="M876 178 1003 178 1003 358 876 358Z" fill-rule="evenodd" clip-rule="evenodd"/></clipPath><clipPath id="clip46"><path d="M-1 229 126 229 126 409-1 409Z" fill-rule="evenodd" clip-rule="evenodd"/></clipPath><clipPath id="clip47"><path d="M125 229 251 229 251 409 125 409Z" fill-rule="evenodd" clip-rule="evenodd"/></clipPath><clipPath id="clip48"><path d="M250 229 376 229 376 409 250 409Z" fill-rule="evenodd" clip-rule="evenodd"/></clipPath><clipPath id="clip49"><path d="M375 229 502 229 502 409 375 409Z" fill-rule="evenodd" clip-rule="evenodd"/></clipPath><clipPath id="clip50"><path d="M501 229 627 229 627 409 501 409Z" fill-rule="evenodd" clip-rule="evenodd"/></clipPath><clipPath id="clip51"><path d="M626 229 752 229 752 409 626 409Z" fill-rule="evenodd" clip-rule="evenodd"/></clipPath><clipPath id="clip52"><path d="M751 229 877 229 877 409 751 409Z" fill-rule="evenodd" clip-rule="evenodd"/></clipPath><clipPath id="clip53"><path d="M876 229 1003 229 1003 409 876 409Z" fill-rule="evenodd" clip-rule="evenodd"/></clipPath><clipPath id="clip54"><path d="M-1 280 126 280 126 460-1 460Z" fill-rule="evenodd" clip-rule="evenodd"/></clipPath><clipPath id="clip55"><path d="M125 280 251 280 251 460 125 460Z" fill-rule="evenodd" clip-rule="evenodd"/></clipPath><clipPath id="clip56"><path d="M250 280 376 280 376 460 250 460Z" fill-rule="evenodd" clip-rule="evenodd"/></clipPath><clipPath id="clip57"><path d="M375 280 502 280 502 460 375 460Z" fill-rule="evenodd" clip-rule="evenodd"/></clipPath><clipPath id="clip58"><path d="M501 280 627 280 627 460 501 460Z" fill-rule="evenodd" clip-rule="evenodd"/></clipPath><clipPath id="clip59"><path d="M626 280 752 280 752 460 626 460Z" fill-rule="evenodd" clip-rule="evenodd"/></clipPath><clipPath id="clip60"><path d="M751 280 877 280 877 460 751 460Z" fill-rule="evenodd" clip-rule="evenodd"/></clipPath><clipPath id="clip61"><path d="M876 280 1003 280 1003 460 876 460Z" fill-rule="evenodd" clip-rule="evenodd"/></clipPath><clipPath id="clip62"><path d="M-1 331 126 331 126 512-1 512Z" fill-rule="evenodd" clip-rule="evenodd"/></clipPath><clipPath id="clip63"><path d="M125 331 251 331 251 512 125 512Z" fill-rule="evenodd" clip-rule="evenodd"/></clipPath><clipPath id="clip64"><path d="M250 331 376 331 376 512 250 512Z" fill-rule="evenodd" clip-rule="evenodd"/></clipPath><clipPath id="clip65"><path d="M375 331 502 331 502 512 375 512Z" fill-rule="evenodd" clip-rule="evenodd"/></clipPath><clipPath id="clip66"><path d="M501 331 627 331 627 512 501 512Z" fill-rule="evenodd" clip-rule="evenodd"/></clipPath><clipPath id="clip67"><path d="M626 331 752 331 752 512 626 512Z" fill-rule="evenodd" clip-rule="evenodd"/></clipPath><clipPath id="clip68"><path d="M751 331 877 331 877 512 751 512Z" fill-rule="evenodd" clip-rule="evenodd"/></clipPath><clipPath id="clip69"><path d="M876 331 1003 331 1003 512 876 512Z" fill-rule="evenodd" clip-rule="evenodd"/></clipPath></defs><g clip-path="url(#clip0)" transform="translate(1 2)"><path d="M-0.000104987 0.000314961 125.257 0.000314961 125.257 35.6571-0.000104987 35.6571Z" fill="#FFFFFF" fill-rule="evenodd"/><path d="M125.257 0.000314961 1002.06 0.000314961 1002.06 35.6571 125.257 35.6571Z" fill="#FFFFFF" fill-rule="evenodd"/><path d="M-0.000104987 35.6571 125.257 35.6571 125.257 96.4571-0.000104987 96.4571Z" fill="#FFFFFF" fill-rule="evenodd"/><path d="M125.257 35.6571 250.514 35.6571 250.514 96.4571 125.257 96.4571Z" fill="#FFFFFF" fill-rule="evenodd"/><path d="M250.514 35.6571 375.771 35.6571 375.771 96.4571 250.514 96.4571Z" fill="#FFFFFF" fill-rule="evenodd"/><path d="M375.771 35.6571 501.028 35.6571 501.028 96.4571 375.771 96.4571Z" fill="#FFFFFF" fill-rule="evenodd"/><path d="M501.028 35.6571 626.285 35.6571 626.285 96.4571 501.028 96.4571Z" fill="#FFFFFF" fill-rule="evenodd"/><path d="M626.285 35.6571 751.543 35.6571 751.543 96.4571 626.285 96.4571Z" fill="#FFFFFF" fill-rule="evenodd"/><path d="M751.543 35.6571 876.8 35.6571 876.8 96.4571 751.543 96.4571Z" fill="#FFFFFF" fill-rule="evenodd"/><path d="M876.8 35.6571 1002.06 35.6571 1002.06 96.4571 876.8 96.4571Z" fill="#FFFFFF" fill-rule="evenodd"/><path d="M-0.000104987 96.4571 125.257 96.4571 125.257 147.689-0.000104987 147.689Z" fill="#FFFFFF" fill-rule="evenodd"/><path d="M125.257 96.4571 250.514 96.4571 250.514 147.689 125.257 147.689Z" fill="#FFFFFF" fill-rule="evenodd"/><path d="M250.514 96.4571 375.771 96.4571 375.771 147.689 250.514 147.689Z" fill="#FFFFFF" fill-rule="evenodd"/><path d="M375.771 96.4571 501.028 96.4571 501.028 147.689 375.771 147.689Z" fill="#FFFFFF" fill-rule="evenodd"/><path d="M501.028 96.4571 626.285 96.4571 626.285 147.689 501.028 147.689Z" fill="#FFFFFF" fill-rule="evenodd"/><path d="M626.285 96.4571 751.543 96.4571 751.543 147.689 626.285 147.689Z" fill="#FFFFFF" fill-rule="evenodd"/><path d="M751.543 96.4571 876.8 96.4571 876.8 147.689 751.543 147.689Z" fill="#FFFFFF" fill-rule="evenodd"/><path d="M876.8 96.4571 1002.06 96.4571 1002.06 147.689 876.8 147.689Z" fill="#FFFFFF" fill-rule="evenodd"/><path d="M-0.000104987 147.689 125.257 147.689 125.257 198.921-0.000104987 198.921Z" fill="#FFFFFF" fill-rule="evenodd"/><path d="M125.257 147.689 250.514 147.689 250.514 198.921 125.257 198.921Z" fill="#FFFFFF" fill-rule="evenodd"/><path d="M250.514 147.689 375.771 147.689 375.771 198.921 250.514 198.921Z" fill="#FFFFFF" fill-rule="evenodd"/><path d="M375.771 147.689 501.028 147.689 501.028 198.921 375.771 198.921Z" fill="#FFFFFF" fill-rule="evenodd"/><path d="M501.028 147.689 626.285 147.689 626.285 198.921 501.028 198.921Z" fill="#FFFFFF" fill-rule="evenodd"/><path d="M626.285 147.689 751.543 147.689 751.543 198.921 626.285 198.921Z" fill="#FFFFFF" fill-rule="evenodd"/><path d="M751.543 147.689 876.8 147.689 876.8 198.921 751.543 198.921Z" fill="#FFFFFF" fill-rule="evenodd"/><path d="M876.8 147.689 1002.06 147.689 1002.06 198.921 876.8 198.921Z" fill="#FFFFFF" fill-rule="evenodd"/><path d="M-0.000104987 198.921 125.257 198.921 125.257 250.153-0.000104987 250.153Z" fill="#FFFFFF" fill-rule="evenodd"/><path d="M125.257 198.921 250.514 198.921 250.514 250.153 125.257 250.153Z" fill="#FFFFFF" fill-rule="evenodd"/><path d="M250.514 198.921 375.771 198.921 375.771 250.153 250.514 250.153Z" fill="#FFFFFF" fill-rule="evenodd"/><path d="M375.771 198.921 501.028 198.921 501.028 250.153 375.771 250.153Z" fill="#FFFFFF" fill-rule="evenodd"/><path d="M501.028 198.921 626.285 198.921 626.285 250.153 501.028 250.153Z" fill="#FFFFFF" fill-rule="evenodd"/><path d="M626.285 198.921 751.543 198.921 751.543 250.153 626.285 250.153Z" fill="#FFFFFF" fill-rule="evenodd"/><path d="M751.543 198.921 876.8 198.921 876.8 250.153 751.543 250.153Z" fill="#FFFFFF" fill-rule="evenodd"/><path d="M876.8 198.921 1002.06 198.921 1002.06 250.153 876.8 250.153Z" fill="#FFFFFF" fill-rule="evenodd"/><path d="M-0.000104987 250.153 125.257 250.153 125.257 301.385-0.000104987 301.385Z" fill="#FFFFFF" fill-rule="evenodd"/><path d="M125.257 250.153 250.514 250.153 250.514 301.385 125.257 301.385Z" fill="#FFFFFF" fill-rule="evenodd"/><path d="M250.514 250.153 375.771 250.153 375.771 301.385 250.514 301.385Z" fill="#FFFFFF" fill-rule="evenodd"/><path d="M375.771 250.153 501.028 250.153 501.028 301.385 375.771 301.385Z" fill="#FFFFFF" fill-rule="evenodd"/><path d="M501.028 250.153 626.285 250.153 626.285 301.385 501.028 301.385Z" fill="#FFFFFF" fill-rule="evenodd"/><path d="M626.285 250.153 751.543 250.153 751.543 301.385 626.285 301.385Z" fill="#FFFFFF" fill-rule="evenodd"/><path d="M751.543 250.153 876.8 250.153 876.8 301.385 751.543 301.385Z" fill="#FFFFFF" fill-rule="evenodd"/><path d="M876.8 250.153 1002.06 250.153 1002.06 301.385 876.8 301.385Z" fill="#FFFFFF" fill-rule="evenodd"/><path d="M-0.000104987 301.385 125.257 301.385 125.257 352.617-0.000104987 352.617Z" fill="#FFFFFF" fill-rule="evenodd"/><path d="M125.257 301.385 250.514 301.385 250.514 352.617 125.257 352.617Z" fill="#FFFFFF" fill-rule="evenodd"/><path d="M250.514 301.385 375.771 301.385 375.771 352.617 250.514 352.617Z" fill="#FFFFFF" fill-rule="evenodd"/><path d="M375.771 301.385 501.028 301.385 501.028 352.617 375.771 352.617Z" fill="#FFFFFF" fill-rule="evenodd"/><path d="M501.028 301.385 626.285 301.385 626.285 352.617 501.028 352.617Z" fill="#FFFFFF" fill-rule="evenodd"/><path d="M626.285 301.385 751.543 301.385 751.543 352.617 626.285 352.617Z" fill="#FFFFFF" fill-rule="evenodd"/><path d="M751.543 301.385 876.8 301.385 876.8 352.617 751.543 352.617Z" fill="#FFFFFF" fill-rule="evenodd"/><path d="M876.8 301.385 1002.06 301.385 1002.06 352.617 876.8 352.617Z" fill="#FFFFFF" fill-rule="evenodd"/><path d="M-0.000104987 352.617 125.257 352.617 125.257 403.849-0.000104987 403.849Z" fill="#FFFFFF" fill-rule="evenodd"/><path d="M125.257 352.617 250.514 352.617 250.514 403.849 125.257 403.849Z" fill="#FFFFFF" fill-rule="evenodd"/><path d="M250.514 352.617 375.771 352.617 375.771 403.849 250.514 403.849Z" fill="#FFFFFF" fill-rule="evenodd"/><path d="M375.771 352.617 501.028 352.617 501.028 403.849 375.771 403.849Z" fill="#FFFFFF" fill-rule="evenodd"/><path d="M501.028 352.617 626.285 352.617 626.285 403.849 501.028 403.849Z" fill="#FFFFFF" fill-rule="evenodd"/><path d="M626.285 352.617 751.543 352.617 751.543 403.849 626.285 403.849Z" fill="#FFFFFF" fill-rule="evenodd"/><path d="M751.543 352.617 876.8 352.617 876.8 403.849 751.543 403.849Z" fill="#FFFFFF" fill-rule="evenodd"/><path d="M876.8 352.617 1002.06 352.617 1002.06 403.849 876.8 403.849Z" fill="#FFFFFF" fill-rule="evenodd"/><path d="M-0.000104987 403.849 125.257 403.849 125.257 455.081-0.000104987 455.081Z" fill="#FFFFFF" fill-rule="evenodd"/><path d="M125.257 403.849 250.514 403.849 250.514 455.081 125.257 455.081Z" fill="#FFFFFF" fill-rule="evenodd"/><path d="M250.514 403.849 375.771 403.849 375.771 455.081 250.514 455.081Z" fill="#FFFFFF" fill-rule="evenodd"/><path d="M375.771 403.849 501.028 403.849 501.028 455.081 375.771 455.081Z" fill="#FFFFFF" fill-rule="evenodd"/><path d="M501.028 403.849 626.285 403.849 626.285 455.081 501.028 455.081Z" fill="#FFFFFF" fill-rule="evenodd"/><path d="M626.285 403.849 751.543 403.849 751.543 455.081 626.285 455.081Z" fill="#FFFFFF" fill-rule="evenodd"/><path d="M751.543 403.849 876.8 403.849 876.8 455.081 751.543 455.081Z" fill="#FFFFFF" fill-rule="evenodd"/><path d="M876.8 403.849 1002.06 403.849 1002.06 455.081 876.8 455.081Z" fill="#FFFFFF" fill-rule="evenodd"/><path d="M125.257-0.666352 125.257 455.747" stroke="#000000" stroke-width="1.33333" stroke-linejoin="round" stroke-miterlimit="10" fill="none" fill-rule="evenodd"/><path d="M250.514 34.9904 250.514 455.747" stroke="#000000" stroke-width="1.33333" stroke-linejoin="round" stroke-miterlimit="10" fill="none" fill-rule="evenodd"/><path d="M375.771 34.9904 375.771 455.747" stroke="#000000" stroke-width="1.33333" stroke-linejoin="round" stroke-miterlimit="10" fill="none" fill-rule="evenodd"/><path d="M501.028 34.9904 501.028 455.747" stroke="#000000" stroke-width="1.33333" stroke-linejoin="round" stroke-miterlimit="10" fill="none" fill-rule="evenodd"/><path d="M626.285 34.9904 626.285 455.747" stroke="#000000" stroke-width="1.33333" stroke-linejoin="round" stroke-miterlimit="10" fill="none" fill-rule="evenodd"/><path d="M751.543 34.9904 751.543 455.747" stroke="#000000" stroke-width="1.33333" stroke-linejoin="round" stroke-miterlimit="10" fill="none" fill-rule="evenodd"/><path d="M876.8 34.9904 876.8 455.747" stroke="#000000" stroke-width="1.33333" stroke-linejoin="round" stroke-miterlimit="10" fill="none" fill-rule="evenodd"/><path d="M-0.666772 35.6571 1002.72 35.6571" stroke="#000000" stroke-width="1.33333" stroke-linejoin="round" stroke-miterlimit="10" fill="none" fill-rule="evenodd"/><path d="M-0.666772 96.4571 1002.72 96.4571" stroke="#000000" stroke-width="1.33333" stroke-linejoin="round" stroke-miterlimit="10" fill="none" fill-rule="evenodd"/><path d="M-0.666772 147.689 1002.72 147.689" stroke="#000000" stroke-width="1.33333" stroke-linejoin="round" stroke-miterlimit="10" fill="none" fill-rule="evenodd"/><path d="M-0.666772 198.921 1002.72 198.921" stroke="#000000" stroke-width="1.33333" stroke-linejoin="round" stroke-miterlimit="10" fill="none" fill-rule="evenodd"/><path d="M-0.666772 250.153 1002.72 250.153" stroke="#000000" stroke-width="1.33333" stroke-linejoin="round" stroke-miterlimit="10" fill="none" fill-rule="evenodd"/><path d="M-0.666772 301.385 1002.72 301.385" stroke="#000000" stroke-width="1.33333" stroke-linejoin="round" stroke-miterlimit="10" fill="none" fill-rule="evenodd"/><path d="M-0.666772 352.617 1002.72 352.617" stroke="#000000" stroke-width="1.33333" stroke-linejoin="round" stroke-miterlimit="10" fill="none" fill-rule="evenodd"/><path d="M-0.666772 403.849 1002.72 403.849" stroke="#000000" stroke-width="1.33333" stroke-linejoin="round" stroke-miterlimit="10" fill="none" fill-rule="evenodd"/><path d="M-0.000104987-0.666352-0.000104987 455.747" stroke="#000000" stroke-width="1.33333" stroke-linejoin="round" stroke-miterlimit="10" fill="none" fill-rule="evenodd"/><path d="M1002.06-0.666352 1002.06 455.747" stroke="#000000" stroke-width="1.33333" stroke-linejoin="round" stroke-miterlimit="10" fill="none" fill-rule="evenodd"/><path d="M-0.666772 0.000314961 1002.72 0.000314961" stroke="#000000" stroke-width="1.33333" stroke-linejoin="round" stroke-miterlimit="10" fill="none" fill-rule="evenodd"/><path d="M-0.666772 455.081 1002.72 455.081" stroke="#000000" stroke-width="1.33333" stroke-linejoin="round" stroke-miterlimit="10" fill="none" fill-rule="evenodd"/><text font-family="Arial,Arial_MSFontService,sans-serif" font-weight="400" font-size="21" transform="translate(440.49 26)">Annual household <tspan x="176.333" y="0">Income</tspan></text><g clip-path="url(#clip1)"><text font-family="Arial,Arial_MSFontService,sans-serif" font-weight="400" font-size="21" transform="translate(9.5999 61)">Household </text></g><g clip-path="url(#clip2)"><text font-family="Arial,Arial_MSFontService,sans-serif" font-weight="400" font-size="21" transform="translate(9.5999 86)">size</text></g><g clip-path="url(#clip3)"><text font-family="Arial,Arial_MSFontService,sans-serif" font-weight="400" font-size="21" transform="translate(134.857 61)">0 to 9,999</text></g><g clip-path="url(#clip4)"><text font-family="Arial,Arial_MSFontService,sans-serif" font-weight="400" font-size="21" transform="translate(260.114 61)">10,000 to </text></g><g clip-path="url(#clip5)"><text font-family="Arial,Arial_MSFontService,sans-serif" font-weight="400" font-size="21" transform="translate(260.114 86)">19,999</text></g><g clip-path="url(#clip6)"><text font-family="Arial,Arial_MSFontService,sans-serif" font-weight="400" font-size="21" transform="translate(385.371 61)">20,000 to </text></g><g clip-path="url(#clip7)"><text font-family="Arial,Arial_MSFontService,sans-serif" font-weight="400" font-size="21" transform="translate(385.371 86)">39,999</text></g><g clip-path="url(#clip8)"><text font-family="Arial,Arial_MSFontService,sans-serif" font-weight="400" font-size="21" transform="translate(510.628 61)">40,000 to </text></g><g clip-path="url(#clip9)"><text font-family="Arial,Arial_MSFontService,sans-serif" font-weight="400" font-size="21" transform="translate(510.628 86)">59,999</text></g><g clip-path="url(#clip10)"><text font-family="Arial,Arial_MSFontService,sans-serif" font-weight="400" font-size="21" transform="translate(635.885 61)">60,000 to </text></g><g clip-path="url(#clip11)"><text font-family="Arial,Arial_MSFontService,sans-serif" font-weight="400" font-size="21" transform="translate(635.885 86)">79,999</text></g><g clip-path="url(#clip12)"><text font-family="Arial,Arial_MSFontService,sans-serif" font-weight="400" font-size="21" transform="translate(761.143 61)">80,000 +</text></g><g clip-path="url(#clip13)"><text font-family="Arial,Arial_MSFontService,sans-serif" font-weight="400" font-size="21" transform="translate(886.4 61)">Total</text></g><g clip-path="url(#clip14)"><text font-family="Arial,Arial_MSFontService,sans-serif" font-weight="400" font-size="21" transform="translate(103.767 122)">1</text></g><g clip-path="url(#clip15)"><text font-family="Arial,Arial_MSFontService,sans-serif" font-weight="400" font-size="21" transform="translate(232.524 122)">*</text></g><g clip-path="url(#clip16)"><text font-family="Arial,Arial_MSFontService,sans-serif" font-weight="400" font-size="21" transform="translate(357.781 122)">*</text></g><g clip-path="url(#clip17)"><text font-family="Arial,Arial_MSFontService,sans-serif" font-weight="400" font-size="21" transform="translate(467.705 122)">15</text></g><g clip-path="url(#clip18)"><text font-family="Arial,Arial_MSFontService,sans-serif" font-weight="400" font-size="21" transform="translate(608.295 122)">*</text></g><g clip-path="url(#clip19)"><text font-family="Arial,Arial_MSFontService,sans-serif" font-weight="400" font-size="21" transform="translate(733.552 122)">*</text></g><g clip-path="url(#clip20)"><text font-family="Arial,Arial_MSFontService,sans-serif" font-weight="400" font-size="21" transform="translate(858.809 122)">*</text></g><g clip-path="url(#clip21)"><text font-family="Arial,Arial_MSFontService,sans-serif" font-weight="400" font-size="21" transform="translate(968.733 122)">29</text></g><g clip-path="url(#clip22)"><text font-family="Arial,Arial_MSFontService,sans-serif" font-weight="400" font-size="21" transform="translate(103.767 173)">2</text></g><g clip-path="url(#clip23)"><text font-family="Arial,Arial_MSFontService,sans-serif" font-weight="400" font-size="21" transform="translate(232.524 173)">*</text></g><g clip-path="url(#clip24)"><text font-family="Arial,Arial_MSFontService,sans-serif" font-weight="400" font-size="21" transform="translate(357.781 173)">*</text></g><g clip-path="url(#clip25)"><text font-family="Arial,Arial_MSFontService,sans-serif" font-weight="400" font-size="21" transform="translate(467.705 173)">15</text></g><g clip-path="url(#clip26)"><text font-family="Arial,Arial_MSFontService,sans-serif" font-weight="400" font-size="21" transform="translate(592.962 173)">16</text></g><g clip-path="url(#clip27)"><text font-family="Arial,Arial_MSFontService,sans-serif" font-weight="400" font-size="21" transform="translate(733.552 173)">*</text></g><g clip-path="url(#clip28)"><text font-family="Arial,Arial_MSFontService,sans-serif" font-weight="400" font-size="21" transform="translate(858.809 173)">*</text></g><g clip-path="url(#clip29)"><text font-family="Arial,Arial_MSFontService,sans-serif" font-weight="400" font-size="21" transform="translate(968.733 173)">47</text></g><g clip-path="url(#clip30)"><text font-family="Arial,Arial_MSFontService,sans-serif" font-weight="400" font-size="21" transform="translate(103.767 225)">3</text></g><g clip-path="url(#clip31)"><text font-family="Arial,Arial_MSFontService,sans-serif" font-weight="400" font-size="21" transform="translate(232.524 225)">*</text></g><g clip-path="url(#clip32)"><text font-family="Arial,Arial_MSFontService,sans-serif" font-weight="400" font-size="21" transform="translate(357.781 225)">*</text></g><g clip-path="url(#clip33)"><text font-family="Arial,Arial_MSFontService,sans-serif" font-weight="400" font-size="21" transform="translate(483.038 225)">*</text></g><g clip-path="url(#clip34)"><text font-family="Arial,Arial_MSFontService,sans-serif" font-weight="400" font-size="21" transform="translate(592.962 225)">18</text></g><g clip-path="url(#clip35)"><text font-family="Arial,Arial_MSFontService,sans-serif" font-weight="400" font-size="21" transform="translate(733.552 225)">*</text></g><g clip-path="url(#clip36)"><text font-family="Arial,Arial_MSFontService,sans-serif" font-weight="400" font-size="21" transform="translate(858.809 225)">*</text></g><g clip-path="url(#clip37)"><text font-family="Arial,Arial_MSFontService,sans-serif" font-weight="400" font-size="21" transform="translate(968.733 225)">42</text></g><g clip-path="url(#clip38)"><text font-family="Arial,Arial_MSFontService,sans-serif" font-weight="400" font-size="21" transform="translate(103.767 276)">4</text></g><g clip-path="url(#clip39)"><text font-family="Arial,Arial_MSFontService,sans-serif" font-weight="400" font-size="21" transform="translate(232.524 276)">*</text></g><g clip-path="url(#clip40)"><text font-family="Arial,Arial_MSFontService,sans-serif" font-weight="400" font-size="21" transform="translate(357.781 276)">*</text></g><g clip-path="url(#clip41)"><text font-family="Arial,Arial_MSFontService,sans-serif" font-weight="400" font-size="21" transform="translate(483.038 276)">*</text></g><g clip-path="url(#clip42)"><text font-family="Arial,Arial_MSFontService,sans-serif" font-weight="400" font-size="21" transform="translate(592.962 276)">10</text></g><g clip-path="url(#clip43)"><text font-family="Arial,Arial_MSFontService,sans-serif" font-weight="400" font-size="21" transform="translate(718.219 276)">10</text></g><g clip-path="url(#clip44)"><text font-family="Arial,Arial_MSFontService,sans-serif" font-weight="400" font-size="21" transform="translate(858.809 276)">*</text></g><g clip-path="url(#clip45)"><text font-family="Arial,Arial_MSFontService,sans-serif" font-weight="400" font-size="21" transform="translate(968.733 276)">42</text></g><g clip-path="url(#clip46)"><text font-family="Arial,Arial_MSFontService,sans-serif" font-weight="400" font-size="21" transform="translate(103.767 327)">5</text></g><g clip-path="url(#clip47)"><text font-family="Arial,Arial_MSFontService,sans-serif" font-weight="400" font-size="21" transform="translate(232.524 327)">*</text></g><g clip-path="url(#clip48)"><text font-family="Arial,Arial_MSFontService,sans-serif" font-weight="400" font-size="21" transform="translate(357.781 327)">*</text></g><g clip-path="url(#clip49)"><text font-family="Arial,Arial_MSFontService,sans-serif" font-weight="400" font-size="21" transform="translate(483.038 327)">*</text></g><g clip-path="url(#clip50)"><text font-family="Arial,Arial_MSFontService,sans-serif" font-weight="400" font-size="21" transform="translate(608.295 327)">*</text></g><g clip-path="url(#clip51)"><text font-family="Arial,Arial_MSFontService,sans-serif" font-weight="400" font-size="21" transform="translate(733.552 327)">*</text></g><g clip-path="url(#clip52)"><text font-family="Arial,Arial_MSFontService,sans-serif" font-weight="400" font-size="21" transform="translate(858.809 327)">*</text></g><g clip-path="url(#clip53)"><text font-family="Arial,Arial_MSFontService,sans-serif" font-weight="400" font-size="21" transform="translate(970.32 327)">11</text></g><g clip-path="url(#clip54)"><text font-family="Arial,Arial_MSFontService,sans-serif" font-weight="400" font-size="21" transform="translate(103.767 378)">6</text></g><g clip-path="url(#clip55)"><text font-family="Arial,Arial_MSFontService,sans-serif" font-weight="400" font-size="21" transform="translate(232.524 378)">*</text></g><g clip-path="url(#clip56)"><text font-family="Arial,Arial_MSFontService,sans-serif" font-weight="400" font-size="21" transform="translate(357.781 378)">*</text></g><g clip-path="url(#clip57)"><text font-family="Arial,Arial_MSFontService,sans-serif" font-weight="400" font-size="21" transform="translate(483.038 378)">*</text></g><g clip-path="url(#clip58)"><text font-family="Arial,Arial_MSFontService,sans-serif" font-weight="400" font-size="21" transform="translate(608.295 378)">*</text></g><g clip-path="url(#clip59)"><text font-family="Arial,Arial_MSFontService,sans-serif" font-weight="400" font-size="21" transform="translate(733.552 378)">*</text></g><g clip-path="url(#clip60)"><text font-family="Arial,Arial_MSFontService,sans-serif" font-weight="400" font-size="21" transform="translate(858.809 378)">*</text></g><g clip-path="url(#clip61)"><text font-family="Arial,Arial_MSFontService,sans-serif" font-weight="400" font-size="21" transform="translate(980.566 378)">1</text></g><g clip-path="url(#clip62)"><text font-family="Arial,Arial_MSFontService,sans-serif" font-weight="400" font-size="21" transform="translate(9.5999 430)">Total</text></g><g clip-path="url(#clip63)"><text font-family="Arial,Arial_MSFontService,sans-serif" font-weight="400" font-size="21" transform="translate(217.19 430)">12</text></g><g clip-path="url(#clip64)"><text font-family="Arial,Arial_MSFontService,sans-serif" font-weight="400" font-size="21" transform="translate(342.447 430)">21</text></g><g clip-path="url(#clip65)"><text font-family="Arial,Arial_MSFontService,sans-serif" font-weight="400" font-size="21" transform="translate(467.705 430)">49</text></g><g clip-path="url(#clip66)"><text font-family="Arial,Arial_MSFontService,sans-serif" font-weight="400" font-size="21" transform="translate(592.962 430)">52</text></g><g clip-path="url(#clip67)"><text font-family="Arial,Arial_MSFontService,sans-serif" font-weight="400" font-size="21" transform="translate(718.219 430)">26</text></g><g clip-path="url(#clip68)"><text font-family="Arial,Arial_MSFontService,sans-serif" font-weight="400" font-size="21" transform="translate(843.476 430)">12</text></g><g clip-path="url(#clip69)"><text font-family="Arial,Arial_MSFontService,sans-serif" font-weight="400" font-size="21" transform="translate(956.9 430)">172</text></g></g></svg>